<svg xmlns="http://www.w3.org/2000/svg" xmlns:xlink="http://www.w3.org/1999/xlink" viewBox="0 0 66 10"><defs><clipPath id="b"><path d="M.13,2.61v-1.48s.04-.68.71-.33c.67.35,1.36.7,1.36.7,0,0,.19.11,0,.22-.19.1-1.9,1-1.9,1,0,0-.17.07-.17-.1ZM.12,7.75v1.48s.04.68.72.33c.67-.35,1.36-.7,1.36-.7,0,0,.19-.11,0-.22-.19-.1-1.9-.99-1.9-.99,0,0-.17-.07-.17.1ZM2.7,3.84c.33-.16,1.43-.74,1.68-.87.33-.17,0-.33,0-.33l-1.68-.88s-.3-.16-.29.18c.01.34,0,1.7,0,1.7,0,0-.05.36.28.2ZM.41,5.06c.33-.16,1.43-.74,1.68-.87.33-.17,0-.33,0-.33l-1.68-.88s-.3-.16-.29.18c.01.34,0,1.7,0,1.7,0,0-.05.36.28.2ZM5,5.01c.33-.16,1.43-.74,1.68-.87.33-.17,0-.33,0-.33l-1.68-.88s-.3-.16-.29.18c.01.34,0,1.7,0,1.7,0,0-.05.36.28.2ZM2.71,6.24c.33-.16,1.43-.74,1.68-.87.33-.17,0-.33,0-.33l-1.68-.88s-.3-.16-.29.18c.01.34,0,1.7,0,1.7,0,0-.05.36.28.2ZM.4,7.4c.33-.16,1.43-.74,1.68-.87.33-.17,0-.33,0-.33l-1.68-.88s-.3-.16-.29.18c.01.34,0,1.7,0,1.7,0,0-.05.36.28.2ZM2.7,8.61c.33-.16,1.43-.74,1.68-.87.33-.17,0-.33,0-.33l-1.68-.88s-.3-.16-.29.18c.01.34,0,1.7,0,1.7,0,0-.05.36.28.2ZM5,7.45c.33-.16,1.43-.74,1.68-.87.33-.17,0-.33,0-.33l-1.68-.88s-.3-.16-.29.18c.01.34,0,1.7,0,1.7,0,0-.05.36.28.2ZM7.01,4.29v1.81s-.03.27.21.14c.24-.12.94-.49,1.4-.72.65-.33,0-.66,0-.66,0,0-1.17-.61-1.4-.73-.23-.12-.21.16-.21.16ZM10.98,7.66c.07.32.21.58.44.79.22.21.5.31.83.31.27,0,.48-.05.65-.15.17-.1.31-.24.4-.41.1-.17.17-.37.21-.6.04-.23.06-.48.06-.74V.74h1.23v6.18c0,.31-.03.64-.1.98-.07.34-.19.66-.37.96-.18.29-.44.54-.77.73-.33.19-.75.29-1.26.29-.67,0-1.22-.18-1.64-.53-.42-.35-.7-.81-.83-1.36l1.15-.33ZM20.22,9.65c-.02-.15-.03-.32-.04-.51,0-.19-.01-.35-.01-.47h-.02c-.15.32-.4.59-.75.81-.35.22-.75.33-1.18.33-.38,0-.71-.06-.99-.19-.28-.13-.51-.3-.69-.52-.18-.22-.31-.48-.4-.77-.09-.29-.13-.61-.13-.94v-3.7h1.17v3.3c0,.24.02.48.06.7.04.22.11.42.21.59.1.17.24.3.41.4.17.1.4.15.67.15.47,0,.86-.18,1.15-.54.29-.36.44-.83.44-1.43v-3.17h1.17v4.69c0,.16,0,.37.01.62,0,.25.02.47.04.67,0,0-1.11,0-1.11,0ZM25.88,5.19c-.13-.22-.32-.4-.56-.54-.24-.14-.51-.21-.81-.21-.13,0-.27.01-.4.04-.13.03-.25.08-.36.14-.1.06-.19.14-.25.24-.06.1-.09.22-.09.36,0,.25.11.44.34.56.22.12.56.23,1.01.33.28.07.54.15.79.24.24.09.45.21.63.35.18.14.32.3.42.5.1.19.15.42.15.68,0,.35-.07.65-.2.89-.13.24-.31.44-.53.6-.22.16-.47.27-.75.33-.28.07-.57.1-.87.1-.45,0-.89-.09-1.31-.26-.43-.18-.78-.44-1.07-.81l.83-.72c.16.24.38.43.65.59.28.16.58.24.92.24.15,0,.29-.01.43-.04.14-.03.26-.08.37-.14.11-.07.2-.16.27-.26.07-.11.1-.25.1-.42,0-.28-.13-.48-.39-.62-.26-.13-.65-.26-1.15-.38-.2-.05-.4-.11-.6-.18-.2-.07-.39-.17-.55-.3-.17-.13-.3-.28-.4-.47-.1-.19-.16-.42-.16-.7,0-.32.06-.59.19-.82.13-.23.3-.42.5-.57.21-.15.44-.26.71-.33.27-.07.54-.11.82-.11.42,0,.83.08,1.23.25.39.17.7.41.92.73l-.81.69ZM30.95,4.65h-1.57v3.1c0,.36.07.62.2.77.13.16.34.23.64.23.11,0,.22-.01.35-.03.12-.02.24-.06.34-.1l.04.97c-.14.05-.3.09-.47.12-.17.03-.35.04-.53.04-.56,0-.98-.16-1.28-.47-.29-.31-.44-.78-.44-1.4v-3.24h-1.13v-.97h1.13v-1.71h1.16v1.71h1.57v.97ZM34.24,7.84h.02l2.07-7.1h1.36l2.06,7.1h.02l1.94-7.1h1.31l-2.59,8.92h-1.28l-2.14-7.17h-.02l-2.14,7.17h-1.28L30.97.74h1.33l1.94,7.1ZM46.72,5.79c0-.44-.13-.77-.4-.99-.27-.21-.62-.32-1.06-.32-.33,0-.65.07-.94.2-.3.13-.54.3-.74.5l-.62-.76c.29-.28.65-.5,1.07-.65.42-.16.87-.24,1.35-.24.42,0,.79.06,1.1.18.31.12.57.29.77.5.2.21.35.46.45.74.1.29.15.59.15.92v2.61c0,.2,0,.41.02.64.01.22.03.41.07.55h-1.06c-.07-.29-.1-.57-.1-.86h-.04c-.22.32-.49.57-.82.74-.33.18-.72.26-1.16.26-.23,0-.48-.03-.73-.09-.25-.06-.48-.17-.69-.31-.21-.14-.38-.33-.52-.57-.14-.24-.21-.52-.21-.87,0-.45.12-.81.36-1.08.24-.26.56-.47.95-.6.39-.14.83-.23,1.32-.27.49-.04.98-.06,1.48-.06v-.16ZM46.43,6.81c-.29,0-.59.01-.9.04-.31.03-.59.08-.85.15-.25.08-.46.19-.63.34-.17.15-.25.35-.25.6,0,.18.04.32.11.44.07.12.16.21.28.29.12.08.24.13.39.16.14.03.29.04.44.04.55,0,.97-.17,1.26-.5.29-.33.44-.75.44-1.25v-.31h-.29ZM52.25,4.65h-1.57v3.1c0,.36.07.62.2.77.13.16.34.23.64.23.11,0,.22-.01.35-.03.12-.02.24-.06.34-.1l.04.97c-.14.05-.3.09-.47.12-.17.03-.35.04-.53.04-.56,0-.98-.16-1.28-.47-.3-.31-.44-.78-.44-1.4v-3.24h-1.13v-.97h1.13v-1.71h1.16v1.71h1.57v.97ZM57.29,5.19c-.12-.19-.31-.35-.56-.48-.25-.13-.52-.2-.8-.2-.31,0-.58.06-.82.18-.24.12-.44.28-.6.47-.17.2-.29.43-.38.69-.09.26-.13.53-.13.82s.04.56.13.82c.09.26.21.49.38.69.17.2.37.35.61.47.24.12.51.18.82.18s.57-.06.82-.18c.24-.12.45-.28.6-.48l.78.72c-.25.29-.56.52-.93.69-.37.16-.8.25-1.27.25s-.88-.08-1.26-.23c-.39-.15-.72-.36-1-.64-.28-.27-.5-.6-.67-.99-.16-.39-.24-.82-.24-1.3s.08-.9.24-1.28c.16-.39.38-.72.66-.99.28-.28.62-.49,1-.64.39-.15.8-.23,1.25-.23.42,0,.83.08,1.24.25.41.17.74.41.98.73l-.85.69ZM60.21,4.59c.14-.29.38-.55.72-.76.34-.21.72-.31,1.15-.31.38,0,.71.07.98.2.27.13.5.3.69.52.18.22.32.47.4.77.09.29.13.61.13.94v3.7h-1.17v-3.31c0-.24-.02-.48-.06-.69-.04-.22-.11-.41-.21-.58-.1-.17-.23-.3-.4-.4-.17-.1-.39-.15-.67-.15-.47,0-.85.18-1.15.54-.3.36-.45.84-.45,1.43v3.17h-1.17V.13h1.17v4.46h.02Z" style="fill:none; stroke-width:0px;"/></clipPath><linearGradient id="c" x1="10.08" y1="-12.91" x2="55.92" y2="22.91" gradientUnits="userSpaceOnUse"><stop offset="0" stop-color="#fbd446"/><stop offset=".15" stop-color="#e2b512"/><stop offset=".24" stop-color="#d2a913"/><stop offset=".46" stop-color="#f9d242"/><stop offset=".7" stop-color="#f9d242"/><stop offset="1" stop-color="#ecc228"/></linearGradient></defs><g style="clip-path:url(#b);"><rect width="66" height="10" style="fill:url(#c); stroke-width:0px;"/></g></svg>