<svg xmlns="http://www.w3.org/2000/svg" viewBox="0 0 435.5 593.2"><path d="M75.72,45.36c29.94,20.76,36.75,101.31,27.96,166.56-2.87,21.31-7.13,54.36-11.09,85.35-4.81,35.2-8.52,65.08-10.21,80.68l39.73,4.65c.08-.66,4.85-38.61,10.16-80.25,3.11-22.72,6.69-47.68,10.48-72.45,15.94-104.04,23.64-126.11,25.62-130.4,10.59-22.94,32.38-49.19,61.78-54.08,10.76-1.79,21.13-.22,28.45,4.3,12.27,7.58,20.03,25.01,23.73,53.27,5.54,42.39-4.03,86.01-14.17,132.2-12.39,56.43-25.2,114.78-8.67,172.28,6.97,24.26,16.53,46.9,27.48,65.38-1.03,2.67-2.07,5.36-3.1,8.07-6.9,17.97-14.03,36.54-20.16,45.66-4.5,6.7-28.65,39.2-62.57,21.16l-18.78,35.32c12.68,6.74,25.8,10.13,38.91,10.13,10.2,0,20.39-2.05,30.36-6.17,17.57-7.26,33.65-20.8,45.3-38.14,6.75-10.05,12.86-24.32,19.05-40.08,12.21,10.52,27.46,18.65,45.43,18.65,24.62,0,46.64-10.38,60.42-28.47,12.8-16.81,16.87-38.3,11.17-58.96-6.25-22.65-25.03-40.52-49.02-46.62-23.9-6.08-48.31,.82-65.3,18.44-3.72,3.86-7.19,8.63-10.48,14.09-3.79-9.14-7.25-19.04-10.26-29.52-13.73-47.77-2.55-98.72,9.29-152.66,10.43-47.51,21.21-96.64,14.76-145.96-3.42-26.12-11.53-63.05-42.37-82.11-15.67-9.68-35.56-13.13-56.03-9.73-35,5.82-66.77,30.59-86.63,67.03-8.13-28.14-20.99-48.43-38.43-60.52C85.51,3.48,70.43-.69,53.7,.09,37.36,.86,19.3,6.49,0,16.84L18.91,52.09c24.88-13.35,44-15.61,56.81-6.73ZM347.46,439.62c9.57-9.93,20.8-8.92,26.64-7.43,9.94,2.53,17.92,9.78,20.32,18.49,2.39,8.65,.81,17.2-4.44,24.09-6.15,8.08-16.57,12.71-28.59,12.71-9.3,0-19.55-7.09-29.41-19.38,5.3-12.52,10.72-23.54,15.47-28.47Z"/></svg>