<svg xmlns="http://www.w3.org/2000/svg" viewBox="0 0 497.81 524.92"><path d="M407.12,482.43c-16.39-7.71-35.32-26.65-32.38-73.02,2.52-39.68,10.82-94.16,18.85-146.85,5.72-37.53,11.13-72.98,14.25-101.73,.48-4.4,1.03-8.89,1.61-13.64,2.8-22.79,5.97-48.61,1.32-71.73-6.05-30.12-24-50.1-53.34-59.39-17.67-5.59-36.18-3.48-53.53,6.12-13.63,7.54-26.17,19.66-36,34.17-11.49-27.92-33.06-43-64.51-44.96-24.33-1.52-46.54,8.85-64.27,29.99-4.08,4.87-7.63,9.96-10.7,15.01-1.41-5.06-3.24-9.89-5.64-14.35C111.89,21.75,92.14,8.15,65.68,2.73,41.34-2.26,16.53,.52,0,3.73L7.63,43c30.76-5.98,67.91-4.39,79.93,17.98,5.61,10.45,5.45,32.23,5.34,48.13-.03,4-.06,7.77-.01,11.39,.73,60.58-5.06,118.07-11.19,178.94-4.25,42.13-8.64,85.7-11.03,132.38l39.92,2.54c.19-2.52,19.44-253.22,39.98-328.98,5.67-20.9,22.66-55.79,50.36-54.06,13.11,.82,35.06,2.19,36.71,58.72,.97,33.22-6.62,135.85-13.15,216.01-4.54,51.05-7.99,93.15-8.88,104.1l39.85,3.42c.39-4.34,4.32-48.02,8.78-102.58,8.28-92.88,19.09-204.11,24.73-225.83,5.17-19.93,19.28-39.65,34.33-47.98,7.72-4.27,14.95-5.25,22.1-2.99,15.23,4.82,23.07,13.54,26.2,29.14,3.37,16.78,.74,38.24-1.81,58.98-.57,4.68-1.17,9.52-1.68,14.2-3.03,27.89-8.37,62.92-14.02,100.01-8.16,53.54-16.6,108.91-19.23,150.35-3.4,53.69,16.22,93.37,55.26,111.74,9.1,4.28,19.19,6.3,29.56,6.3,29.25,0,60.71-16.06,78.16-42.7l-33.46-21.92c-12.63,19.27-40.44,30.03-57.22,22.13Z"/></svg>