<svg xmlns="http://www.w3.org/2000/svg" viewBox="0 0 628.34 501.99"><path d="M539.73,.54c-24.31,2.52-46.15,13.56-64.92,32.81-14.92,15.31-26.4,32.39-37.5,48.91-11.86,17.65-23.06,34.31-37.63,47.83-20.6,19.11-51.46,30.19-85.23,30.61-33.95-.32-65.08-11.39-85.78-30.61-14.57-13.52-25.77-30.19-37.63-47.84-11.1-16.52-22.58-33.6-37.5-48.91C134.77,14.1,112.92,3.07,88.61,.54,61.06-2.32,31.25,6.1,0,25.56L21.14,59.52c42.72-26.61,76.66-26.03,103.74,1.76,12.39,12.71,22.38,27.57,32.95,43.3,12.61,18.76,25.65,38.16,43.62,54.84,10.28,9.54,22.31,17.58,35.6,23.97-54.31,28.05-91.52,84.73-91.52,149.95,0,92.99,75.65,168.65,168.65,168.65s168.65-75.65,168.65-168.65c0-65.22-37.22-121.91-91.52-149.95,13.28-6.39,25.32-14.43,35.6-23.97,17.97-16.68,31.01-36.08,43.62-54.84,10.57-15.73,20.56-30.59,32.95-43.3,27.08-27.79,61.01-28.36,103.74-1.76l21.14-33.95c-31.25-19.46-61.06-27.88-88.61-25.02Zm-96.91,332.8c0,70.94-57.71,128.65-128.65,128.65s-128.65-57.71-128.65-128.65,57.71-128.65,128.65-128.65,128.65,57.71,128.65,128.65Z"/></svg>